<svg version="1.2" xmlns="http://www.w3.org/2000/svg" viewBox="0 0 960 960" width="30" height="30">
	<title>radio_button_unchecked_FILL0_wght400_GRAD0_opsz24-svg</title>
	<style>
		.s0 { fill: #ec5030 } 
	</style>
	<path id="Layer" fill-rule="evenodd" class="s0" d="m480 880q-83 0-156-31.5-73-31.5-127-85.5-54-54-85.5-127-31.5-73-31.5-156 0-83 31.5-156 31.5-73 85.5-127 54-54 127-85.5 73-31.5 156-31.5 83 0 156 31.5 73 31.5 127 85.5 54 54 85.5 127 31.5 73 31.5 156 0 83-31.5 156-31.5 73-85.5 127-54 54-127 85.5-73 31.5-156 31.5zm0-80q134 0 227-93 93-93 93-227 0-134-93-227-93-93-227-93-134 0-227 93-93 93-93 227 0 134 93 227 93 93 227 93z"/>
</svg>